<svg width="112" height="22" viewBox="0 0 112 22" fill="none" xmlns="http://www.w3.org/2000/svg">
<path d="M0 10.5C0 4.70101 4.70101 0 10.5 0H80V21H10.5C4.70101 21 0 16.299 0 10.5V10.5Z" fill="#562BAC"/>
<path d="M16.28 13.85C16.1933 13.7367 16.12 13.6133 16.06 13.48C16 13.34 15.9367 13.1733 15.87 12.98C15.8567 12.9467 15.8167 12.8467 15.75 12.68C15.69 12.5133 15.62 12.37 15.54 12.25C15.12 12.31 14.7767 12.34 14.51 12.34C14.3633 12.34 14.2 12.3367 14.02 12.33C13.8467 12.3167 13.7167 12.31 13.63 12.31C13.2967 12.2833 13.03 12.27 12.83 12.27C12.75 12.3767 12.68 12.49 12.62 12.61C12.5667 12.73 12.4967 12.91 12.41 13.15C12.29 13.4967 12.1867 13.7433 12.1 13.89C12.04 13.99 11.9233 14.04 11.75 14.04C11.6033 14.04 11.4667 14.01 11.34 13.95C11.22 13.8833 11.16 13.7933 11.16 13.68C11.2133 13.4267 11.2967 13.16 11.41 12.88C11.53 12.5933 11.7 12.2133 11.92 11.74L12.32 10.76C12.54 10.2 12.74 9.72 12.92 9.32C13.1067 8.92 13.35 8.44667 13.65 7.9C13.69 7.82 13.7567 7.75333 13.85 7.7C13.9433 7.64 14.0467 7.61 14.16 7.61C14.2867 7.61 14.3767 7.62 14.43 7.64C14.49 7.65333 14.5367 7.68 14.57 7.72C14.6033 7.75333 14.6533 7.82667 14.72 7.94C14.9467 8.29333 15.14 8.65667 15.3 9.03C15.4667 9.40333 15.6767 9.92 15.93 10.58L16.14 11.11C16.3267 11.59 16.4867 11.9933 16.62 12.32C16.76 12.64 16.9133 12.9333 17.08 13.2C17.1867 13.3733 17.24 13.4933 17.24 13.56C17.24 13.72 17.19 13.8433 17.09 13.93C16.9967 14.01 16.8733 14.05 16.72 14.05C16.5267 14.05 16.38 13.9833 16.28 13.85ZM15.25 11.43C15.1433 11.2033 14.99 10.81 14.79 10.25C14.5833 9.65 14.3767 9.17333 14.17 8.82C14.0433 9.14 13.8567 9.55333 13.61 10.06C13.4433 10.3733 13.2533 10.8267 13.04 11.42C13.4667 11.4733 13.9267 11.5 14.42 11.5C14.7733 11.5 15.05 11.4767 15.25 11.43ZM22.6065 12.19C22.6065 12.5033 22.5332 12.7733 22.3865 13C22.2465 13.22 22.0132 13.4233 21.6865 13.61C21.4665 13.7433 21.2098 13.8433 20.9165 13.91C20.6232 13.9767 20.3265 14.01 20.0265 14.01C19.7198 14.01 19.3398 13.91 18.8865 13.71C18.5598 13.55 18.2998 13.36 18.1065 13.14C17.9198 12.92 17.8265 12.68 17.8265 12.42C17.8265 12.24 17.8665 12.11 17.9465 12.03C18.0265 11.9433 18.1565 11.9 18.3365 11.9C18.4298 11.9 18.5265 11.94 18.6265 12.02C18.7265 12.0933 18.7865 12.1667 18.8065 12.24C18.8998 12.5133 19.0632 12.7233 19.2965 12.87C19.5298 13.01 19.8198 13.08 20.1665 13.08C20.5665 13.08 20.8998 13.0067 21.1665 12.86C21.4398 12.7133 21.5765 12.5167 21.5765 12.27C21.5765 12.03 21.4298 11.8167 21.1365 11.63C20.8432 11.4433 20.5432 11.3133 20.2365 11.24C19.7965 11.12 19.4065 10.9767 19.0665 10.81C18.7132 10.6367 18.4498 10.4233 18.2765 10.17C18.1032 9.91667 18.0165 9.65 18.0165 9.37C18.0165 9.11 18.1065 8.84667 18.2865 8.58C18.4665 8.30667 18.6798 8.11 18.9265 7.99C19.0598 7.92333 19.2865 7.85333 19.6065 7.78C19.9332 7.7 20.1698 7.66 20.3165 7.66C20.5098 7.66 20.7232 7.68333 20.9565 7.73C21.1898 7.77667 21.3798 7.84333 21.5265 7.93C21.8198 8.09667 22.0365 8.24667 22.1765 8.38C22.3165 8.51333 22.3865 8.68 22.3865 8.88C22.3865 9 22.3398 9.10667 22.2465 9.2C22.1598 9.29333 22.0065 9.34 21.7865 9.34C21.7332 9.34 21.6798 9.31667 21.6265 9.27C21.5732 9.22333 21.5065 9.15333 21.4265 9.06C21.3198 8.92 21.2165 8.82667 21.1165 8.78C21.0165 8.74667 20.8698 8.71 20.6765 8.67C20.4898 8.63 20.3232 8.61 20.1765 8.61C20.0165 8.61 19.8498 8.64333 19.6765 8.71C19.5032 8.77667 19.3565 8.87333 19.2365 9C19.1232 9.12 19.0665 9.26 19.0665 9.42C19.0665 9.55333 19.1265 9.67 19.2465 9.77C19.3732 9.86333 19.5232 9.94 19.6965 10C19.8965 10.08 20.1132 10.15 20.3465 10.21C20.6532 10.3033 20.9032 10.39 21.0965 10.47C21.2965 10.5433 21.4898 10.6367 21.6765 10.75C22.0032 10.9433 22.2398 11.1433 22.3865 11.35C22.5332 11.55 22.6065 11.83 22.6065 12.19ZM26.2017 11.74C25.9417 11.74 25.7217 11.7333 25.5417 11.72C25.3684 11.7 25.1384 11.67 24.8517 11.63L24.8417 12.68C24.8351 12.86 24.8317 13.1167 24.8317 13.45C24.8317 13.6233 24.7817 13.76 24.6817 13.86C24.5884 13.9533 24.4817 14 24.3617 14C24.1417 14 23.9784 13.9733 23.8717 13.92C23.7651 13.86 23.7117 13.7567 23.7117 13.61C23.7117 13.4167 23.7284 13.1433 23.7617 12.79C23.8351 12.03 23.8717 11.25 23.8717 10.45C23.8717 9.70333 23.8484 9 23.8017 8.34C23.8084 8.24667 23.8551 8.14 23.9417 8.02C24.0351 7.9 24.1517 7.83333 24.2917 7.82C24.4451 7.82 24.6884 7.79333 25.0217 7.74C25.3684 7.68667 25.6317 7.66 25.8117 7.66C26.3584 7.66 26.7817 7.71333 27.0817 7.82C27.3884 7.92667 27.6951 8.10333 28.0017 8.35C28.3351 8.87 28.5017 9.23667 28.5017 9.45C28.5017 9.89667 28.4117 10.2933 28.2317 10.64C28.0517 10.9867 27.7884 11.2567 27.4417 11.45C27.0951 11.6433 26.6817 11.74 26.2017 11.74ZM25.9717 8.51C25.7584 8.51 25.5717 8.52333 25.4117 8.55C25.2584 8.57 25.0717 8.60667 24.8517 8.66C24.8784 9.27333 24.8917 9.72 24.8917 10C24.8917 10.2867 24.8817 10.5267 24.8617 10.72C25.1484 10.78 25.3751 10.82 25.5417 10.84C25.7084 10.8533 25.8951 10.86 26.1017 10.86C26.5951 10.86 26.9417 10.7333 27.1417 10.48C27.3484 10.22 27.4517 9.92 27.4517 9.58C27.4517 9.48 27.4217 9.35667 27.3617 9.21C27.3017 9.06333 27.2484 8.96667 27.2017 8.92C27.0217 8.76 26.8451 8.65333 26.6717 8.6C26.5051 8.54 26.2717 8.51 25.9717 8.51ZM33.6246 8.38C33.6246 8.18667 33.6679 8.02 33.7546 7.88C33.8479 7.73333 33.9846 7.66 34.1646 7.66C34.3179 7.66 34.4546 7.69 34.5746 7.75C34.6946 7.81 34.7546 7.91 34.7546 8.05C34.7546 8.32333 34.7413 8.70667 34.7146 9.2C34.6879 9.68 34.6746 10.0367 34.6746 10.27C34.6746 10.6367 34.6879 11.1267 34.7146 11.74C34.7413 12.3267 34.7546 12.7567 34.7546 13.03C34.7546 13.25 34.7513 13.4133 34.7446 13.52C34.7446 13.6267 34.6846 13.7333 34.5646 13.84C34.4513 13.94 34.2746 13.99 34.0346 13.99C33.9079 13.99 33.7979 13.97 33.7046 13.93C33.6179 13.8833 33.5579 13.8333 33.5246 13.78C33.2113 13.4 32.7546 12.7533 32.1546 11.84C31.4813 10.82 30.9313 10.04 30.5046 9.5C30.5579 9.98 30.5846 10.5667 30.5846 11.26C30.5846 11.5667 30.5779 11.9667 30.5646 12.46C30.5579 12.9467 30.5446 13.2667 30.5246 13.42C30.4979 13.6133 30.4379 13.7633 30.3446 13.87C30.2579 13.97 30.1179 14.02 29.9246 14.02C29.7779 14.02 29.6679 13.98 29.5946 13.9C29.5279 13.8133 29.4879 13.6667 29.4746 13.46C29.4679 13.1867 29.4846 12.7767 29.5246 12.23C29.5313 12.1433 29.5413 11.9933 29.5546 11.78C29.5679 11.5667 29.5746 11.3767 29.5746 11.21C29.5746 10.75 29.5513 10.2233 29.5046 9.63C29.4646 8.97667 29.4446 8.49333 29.4446 8.18C29.4446 8.02 29.5013 7.89667 29.6146 7.81C29.7346 7.72333 29.8713 7.68 30.0246 7.68C30.1579 7.68 30.2979 7.71333 30.4446 7.78C31.0179 8.5 31.7946 9.57333 32.7746 11L33.7146 12.44C33.7213 12.3333 33.7246 12.1833 33.7246 11.99C33.7246 11.65 33.7179 11.2833 33.7046 10.89C33.6913 10.4967 33.6813 10.23 33.6746 10.09C33.6413 9.44333 33.6246 8.87333 33.6246 8.38ZM40.7427 13.36C40.7493 13.5 40.7327 13.6 40.6927 13.66C40.6527 13.7133 40.5727 13.77 40.4527 13.83C40.2727 13.9167 40.0593 13.9733 39.8127 14C39.5727 14.0267 39.2627 14.04 38.8827 14.04H38.2027C37.6093 14.04 37.1693 13.94 36.8827 13.74C36.596 13.5333 36.416 13.2867 36.3427 13C36.2693 12.7133 36.226 12.3433 36.2127 11.89C36.206 11.7367 36.2027 11.51 36.2027 11.21C36.2027 10.5567 36.2593 9.68333 36.3727 8.59C36.406 8.27 36.5227 8.04 36.7227 7.9C36.9227 7.75333 37.1493 7.68 37.4027 7.68C37.6093 7.68 37.946 7.67333 38.4127 7.66L39.2927 7.65C39.6527 7.65 39.9127 7.66 40.0727 7.68C40.2727 7.72 40.4227 7.76667 40.5227 7.82C40.6227 7.86667 40.676 7.95 40.6827 8.07C40.6827 8.20333 40.6393 8.33333 40.5527 8.46C40.466 8.58667 40.3327 8.65 40.1527 8.65C39.946 8.65 39.6493 8.63667 39.2627 8.61C38.876 8.58333 38.5827 8.57 38.3827 8.57C38.2027 8.57 38.0393 8.58 37.8927 8.6C37.706 8.61333 37.5727 8.63667 37.4927 8.67C37.4127 8.70333 37.3693 8.76 37.3627 8.84C37.2893 9.56667 37.2593 10.0733 37.2727 10.36C37.426 10.38 37.5793 10.39 37.7327 10.39C37.886 10.39 38.096 10.3767 38.3627 10.35C38.4293 10.3433 38.5127 10.3367 38.6127 10.33C38.7127 10.3233 38.826 10.32 38.9527 10.32C39.026 10.32 39.1427 10.3267 39.3027 10.34L39.6127 10.35C39.9193 10.35 40.0727 10.46 40.0727 10.68C40.0727 10.8133 40.036 10.92 39.9627 11C39.8893 11.08 39.7593 11.14 39.5727 11.18C39.3193 11.2267 38.9093 11.25 38.3427 11.25H37.7327C37.606 11.25 37.4493 11.2433 37.2627 11.23C37.256 11.35 37.2527 11.5233 37.2527 11.75C37.2527 12.0433 37.256 12.25 37.2627 12.37C37.2827 12.8367 37.606 13.07 38.2327 13.07C38.446 13.07 38.6727 13.0767 38.9127 13.09L39.2827 13.1C39.456 13.1 39.5993 13.0833 39.7127 13.05C39.826 13.01 39.936 12.9767 40.0427 12.95C40.156 12.9167 40.2593 12.9 40.3527 12.9C40.4793 12.9 40.576 12.95 40.6427 13.05C40.7093 13.1433 40.7427 13.2467 40.7427 13.36ZM41.1784 8.17C41.1784 7.88333 41.3884 7.74 41.8084 7.74C41.9884 7.74 42.3317 7.74667 42.8384 7.76C43.3984 7.78667 43.8217 7.8 44.1084 7.8C44.3417 7.8 44.625 7.78667 44.9584 7.76C45.185 7.74667 45.3284 7.74 45.3884 7.74C45.755 7.75333 46.065 7.82 46.3184 7.94C46.3917 7.97333 46.4517 8.01333 46.4984 8.06C46.545 8.10667 46.5684 8.18333 46.5684 8.29C46.5684 8.43667 46.5217 8.56333 46.4284 8.67C46.335 8.77 46.2217 8.82 46.0884 8.82C45.9417 8.82 45.7284 8.8 45.4484 8.76C45.2017 8.71333 44.985 8.69 44.7984 8.69C44.6184 8.69 44.4817 8.69333 44.3884 8.7C44.3684 8.92 44.3584 9.44667 44.3584 10.28C44.3584 11.2733 44.3884 12.28 44.4484 13.3L44.4684 13.59C44.4684 13.8633 44.3117 14 43.9984 14C43.7517 14 43.585 13.9433 43.4984 13.83C43.4117 13.71 43.3684 13.53 43.3684 13.29C43.3684 12.8167 43.355 12.2267 43.3284 11.52C43.3017 10.9333 43.2884 10.5167 43.2884 10.27C43.2884 10.1033 43.3084 9.59333 43.3484 8.74L42.1784 8.75C41.805 8.75 41.545 8.71667 41.3984 8.65C41.2517 8.57667 41.1784 8.41667 41.1784 8.17ZM54.5199 8.63C54.6199 8.75 54.6899 8.84667 54.7299 8.92C54.7699 8.99333 54.7899 9.06333 54.7899 9.13C54.7899 9.21 54.7366 9.30333 54.6299 9.41C54.5299 9.51667 54.4299 9.57 54.3299 9.57C54.1966 9.57 54.0899 9.55 54.0099 9.51C53.9299 9.47 53.8633 9.40667 53.8099 9.32C53.6833 9.12 53.5366 8.94333 53.3699 8.79C53.2033 8.63 52.9799 8.55 52.6999 8.55C52.4266 8.55 52.1199 8.61333 51.7799 8.74C51.4399 8.86667 51.1899 9.02333 51.0299 9.21C50.6699 9.65 50.4899 10.2333 50.4899 10.96C50.4899 11.54 50.6699 12.0367 51.0299 12.45C51.4099 12.8767 51.8899 13.09 52.4699 13.09C52.7366 13.09 53.0266 13.0433 53.3399 12.95C53.6599 12.85 53.9133 12.69 54.0999 12.47H54.0899C54.2099 12.3433 54.3599 12.28 54.5399 12.28C54.6466 12.28 54.7466 12.3267 54.8399 12.42C54.9399 12.5133 54.9899 12.6067 54.9899 12.7C54.9899 12.8 54.9733 12.89 54.9399 12.97C54.9133 13.0433 54.8599 13.1267 54.7799 13.22C54.5066 13.52 54.1566 13.73 53.7299 13.85C53.3099 13.9633 52.8299 14.02 52.2899 14.02C51.8433 14.02 51.4133 13.9133 50.9999 13.7C50.5933 13.4867 50.2566 13.2167 49.9899 12.89C49.8566 12.6967 49.7266 12.42 49.5999 12.06C49.4799 11.6933 49.4199 11.3967 49.4199 11.17C49.4199 10.59 49.5066 10.04 49.6799 9.52C49.8599 8.99333 50.1266 8.57333 50.4799 8.26C50.7133 8.04667 51.0499 7.88667 51.4899 7.78C51.9299 7.67333 52.3333 7.62 52.6999 7.62C52.9933 7.62 53.2433 7.66333 53.4499 7.75C53.6633 7.83 53.8466 7.94 53.9999 8.08C54.1533 8.21333 54.3266 8.39667 54.5199 8.63ZM58.9857 7.64C59.4124 7.64 59.779 7.69333 60.0857 7.8C60.399 7.90667 60.6757 8.07 60.9157 8.29C61.3357 8.67 61.629 9.08667 61.7957 9.54C61.969 9.98667 62.0557 10.56 62.0557 11.26C62.0557 11.4333 62.0324 11.5967 61.9857 11.75C61.939 11.8967 61.869 12.0767 61.7757 12.29L61.6457 12.61C61.5524 12.8633 61.359 13.1 61.0657 13.32C60.7724 13.5333 60.4424 13.7033 60.0757 13.83C59.709 13.9567 59.3757 14.02 59.0757 14.02C58.4624 14.02 57.9257 13.92 57.4657 13.72C57.0124 13.5133 56.6357 13.19 56.3357 12.75C56.1824 12.5167 56.0624 12.2567 55.9757 11.97C55.889 11.6767 55.8457 11.3967 55.8457 11.13C55.8457 10.45 55.9657 9.86 56.2057 9.36C56.4524 8.85333 56.7924 8.46 57.2257 8.18C57.4724 8.03333 57.7657 7.90667 58.1057 7.8C58.4524 7.69333 58.7457 7.64 58.9857 7.64ZM56.9057 11.13C56.9057 11.4767 56.989 11.8 57.1557 12.1C57.329 12.3933 57.559 12.6267 57.8457 12.8C58.139 12.9733 58.459 13.06 58.8057 13.06C59.519 13.06 60.0624 12.88 60.4357 12.52C60.8157 12.16 61.0057 11.6533 61.0057 11C61.0057 10.4933 60.949 10.0933 60.8357 9.8C60.7224 9.50667 60.519 9.24333 60.2257 9.01C60.0657 8.87667 59.8924 8.78333 59.7057 8.73C59.5257 8.67 59.3124 8.64 59.0657 8.64C58.639 8.64 58.2624 8.74667 57.9357 8.96C57.609 9.17333 57.3557 9.47 57.1757 9.85C56.9957 10.23 56.9057 10.6567 56.9057 11.13ZM66.6425 11.35C67.2225 12.3367 67.7658 13.12 68.2725 13.7C68.3258 13.7533 68.3525 13.8133 68.3525 13.88C68.3525 13.9667 68.2992 14.04 68.1925 14.1C68.0858 14.1667 67.9625 14.2 67.8225 14.2C67.6158 14.2 67.3925 14.1133 67.1525 13.94C66.9792 13.82 66.8192 13.6433 66.6725 13.41C66.5258 13.17 66.3592 12.8633 66.1725 12.49L66.0025 12.15C65.8292 11.8367 65.7258 11.6533 65.6925 11.6C65.5458 11.66 65.3758 11.7033 65.1825 11.73C64.9892 11.7567 64.7525 11.78 64.4725 11.8C64.4858 12.6533 64.4925 13.25 64.4925 13.59C64.4925 13.7167 64.4458 13.82 64.3525 13.9C64.2592 13.9733 64.1425 14.01 64.0025 14.01C63.8292 14.01 63.6958 13.94 63.6025 13.8C63.5092 13.6133 63.4625 13.3233 63.4625 12.93L63.4725 12.2C63.4725 11.7467 63.4825 11.3167 63.5025 10.91C63.5158 10.3767 63.5225 9.98333 63.5225 9.73L63.5325 9.22C63.5325 9.06667 63.5225 8.91 63.5025 8.75C63.3958 8.71667 63.3025 8.66667 63.2225 8.6C63.1425 8.52667 63.1025 8.44667 63.1025 8.36C63.1025 8.19333 63.1625 8.06667 63.2825 7.98C63.4092 7.88667 63.5658 7.82667 63.7525 7.8C64.2925 7.71333 64.8192 7.67 65.3325 7.67C66.2058 7.67 66.9292 7.83333 67.5025 8.16C68.0758 8.48667 68.3625 8.98333 68.3625 9.65C68.3625 9.85667 68.3158 10.0567 68.2225 10.25C68.1358 10.4367 68.0158 10.5933 67.8625 10.72C67.4625 11.0333 67.0558 11.2433 66.6425 11.35ZM67.3025 9.62C67.3025 9.3 67.1325 9.04 66.7925 8.84C66.4592 8.63333 65.9792 8.53 65.3525 8.53C65.0792 8.53 64.7992 8.56333 64.5125 8.63C64.5258 8.87 64.5325 9.04 64.5325 9.14C64.5325 9.34 64.5192 9.62667 64.4925 10C64.4792 10.3733 64.4725 10.6733 64.4725 10.9C64.9192 10.9 65.3458 10.84 65.7525 10.72C66.0458 10.6333 66.2925 10.55 66.4925 10.47C66.6925 10.39 66.8758 10.28 67.0425 10.14C67.2158 9.99333 67.3025 9.82 67.3025 9.62ZM73.5446 12.64C73.6713 12.64 73.7646 12.69 73.8246 12.79C73.8913 12.8833 73.9246 12.9867 73.9246 13.1C73.9246 13.24 73.9013 13.34 73.8546 13.4C73.8146 13.4533 73.7346 13.51 73.6146 13.57C73.3346 13.7033 72.9879 13.81 72.5746 13.89C72.1613 13.97 71.7179 14.01 71.2446 14.01C70.6513 14.01 70.2146 13.91 69.9346 13.71C69.6613 13.51 69.4913 13.27 69.4246 12.99C69.3646 12.7033 69.3346 12.33 69.3346 11.87C69.3346 11.3767 69.3546 10.8933 69.3946 10.42C69.4346 9.94 69.5046 9.33 69.6046 8.59C69.6513 8.27 69.7779 8.04 69.9846 7.9C70.1913 7.75333 70.4179 7.68 70.6646 7.68C70.8713 7.68 71.2079 7.67333 71.6746 7.66L72.5446 7.65C72.9046 7.65 73.1646 7.66 73.3246 7.68C73.5246 7.72 73.6713 7.76667 73.7646 7.82C73.8646 7.86667 73.9146 7.95 73.9146 8.07C73.9146 8.20333 73.8679 8.33333 73.7746 8.46C73.6879 8.58667 73.5546 8.65 73.3746 8.65C73.1679 8.65 72.8713 8.63667 72.4846 8.61C72.0979 8.58333 71.8079 8.57 71.6146 8.57C71.4479 8.57 71.2846 8.58 71.1246 8.6C70.9379 8.61333 70.8046 8.63667 70.7246 8.67C70.6446 8.70333 70.5979 8.76 70.5846 8.84C70.4913 9.52667 70.4446 10.0333 70.4446 10.36C70.5979 10.38 70.7479 10.39 70.8946 10.39C71.0813 10.39 71.2813 10.38 71.4946 10.36C71.7079 10.34 71.8446 10.3267 71.9046 10.32C72.2579 10.2867 72.5613 10.27 72.8146 10.27C72.9613 10.27 73.0713 10.2967 73.1446 10.35C73.2246 10.4033 73.2646 10.4767 73.2646 10.57C73.2646 10.7167 73.2246 10.83 73.1446 10.91C73.0713 10.99 72.9379 11.05 72.7446 11.09C72.5113 11.1367 72.2213 11.1733 71.8746 11.2C71.5346 11.2267 71.2013 11.24 70.8746 11.24C70.7613 11.24 70.6046 11.2333 70.4046 11.22C70.3846 11.6267 70.3746 12.0033 70.3746 12.35C70.3746 12.8233 70.6879 13.06 71.3146 13.06C71.6479 13.06 71.9246 13.0367 72.1446 12.99C72.3646 12.9433 72.6179 12.8767 72.9046 12.79C73.1713 12.69 73.3846 12.64 73.5446 12.64Z" fill="white"/>
<path d="M112 10.6327C112 16.5049 107.24 21.2654 101.367 21.2654L79.6226 21.2654V0L101.367 0C107.24 0 112 4.76041 112 10.6327V10.6327Z" fill="#9B93AA"/>
<path d="M91.537 10.8059C91.9436 10.9659 92.2703 11.1792 92.517 11.4459C92.7636 11.7125 92.887 12.0192 92.887 12.3659C92.887 12.4659 92.8636 12.5925 92.817 12.7459C92.777 12.8925 92.7203 13.0192 92.647 13.1259C92.207 13.8059 91.4303 14.1459 90.317 14.1459C89.737 14.1459 89.2336 14.0292 88.807 13.7959C88.3803 13.5559 88.167 13.1992 88.167 12.7259C88.167 12.0525 88.6303 11.4759 89.557 10.9959C88.6903 10.6759 88.257 10.2025 88.257 9.57587C88.257 9.19587 88.3636 8.87587 88.577 8.61588C88.7903 8.35587 89.0703 8.16254 89.417 8.03587C89.7703 7.90921 90.1536 7.84587 90.567 7.84587C90.8736 7.84587 91.187 7.91921 91.507 8.06588C91.827 8.20587 92.047 8.38921 92.167 8.61588C92.287 8.86921 92.347 9.10587 92.347 9.32587C92.347 9.61254 92.287 9.87588 92.167 10.1159C92.0536 10.3559 91.8436 10.5859 91.537 10.8059ZM90.497 10.5059C90.7103 10.3659 90.8736 10.2525 90.987 10.1659C91.107 10.0725 91.207 9.96254 91.287 9.83587C91.3736 9.70254 91.417 9.54921 91.417 9.37587C91.417 9.17588 91.337 9.00921 91.177 8.87587C91.017 8.74254 90.8236 8.67587 90.597 8.67587C90.1103 8.67587 89.7703 8.75921 89.577 8.92587C89.3903 9.09254 89.297 9.28921 89.297 9.51588C89.297 9.69588 89.357 9.84921 89.477 9.97587C89.597 10.0959 89.7303 10.1925 89.877 10.2659C90.0303 10.3325 90.237 10.4125 90.497 10.5059ZM91.827 12.2959C91.827 12.1825 91.7536 12.0625 91.607 11.9359C91.467 11.8092 91.3003 11.6992 91.107 11.6059C90.9136 11.5059 90.7503 11.4392 90.617 11.4059C90.3903 11.4992 90.1403 11.6492 89.867 11.8559C89.5936 12.0559 89.427 12.2025 89.367 12.2959C89.3003 12.3892 89.2536 12.4692 89.227 12.5359C89.207 12.5959 89.197 12.6692 89.197 12.7559C89.197 12.8559 89.257 12.9525 89.377 13.0459C89.497 13.1325 89.6403 13.2025 89.807 13.2559C89.9736 13.3092 90.117 13.3359 90.237 13.3359C90.7103 13.3359 91.0936 13.2425 91.387 13.0559C91.6803 12.8625 91.827 12.6092 91.827 12.2959ZM95.1155 13.5659C95.1155 13.7325 95.0488 13.8892 94.9155 14.0359C94.7822 14.1759 94.6355 14.2459 94.4755 14.2459C94.2888 14.2459 94.1188 14.1959 93.9655 14.0959C93.8122 13.9892 93.7355 13.8559 93.7355 13.6959C93.7355 13.4425 93.7822 13.2559 93.8755 13.1359C93.9755 13.0159 94.1222 12.9559 94.3155 12.9559C94.5422 12.9559 94.7322 13.0125 94.8855 13.1259C95.0388 13.2325 95.1155 13.3792 95.1155 13.5659ZM100.546 8.47588C100.766 8.81588 100.943 9.20588 101.076 9.64587C101.21 10.0792 101.276 10.5225 101.276 10.9759C101.276 11.5159 101.183 12.0292 100.996 12.5159C100.816 13.0025 100.543 13.3992 100.176 13.7059C99.8164 14.0125 99.3764 14.1659 98.8564 14.1659C98.3698 14.1659 97.9231 14.0425 97.5164 13.7959C97.1098 13.5425 96.8031 13.2492 96.5964 12.9159C96.4431 12.6692 96.3264 12.3925 96.2464 12.0859C96.1664 11.7725 96.1264 11.4592 96.1264 11.1459C96.1264 10.5992 96.2398 10.0659 96.4664 9.54588C96.6998 9.02588 97.0198 8.60921 97.4264 8.29588C97.8131 8.00921 98.2564 7.86588 98.7564 7.86588C99.3098 7.86588 99.9064 8.06921 100.546 8.47588ZM97.8664 9.16587C97.8064 9.26588 97.7464 9.35588 97.6864 9.43587C97.5398 9.65587 97.4331 9.84254 97.3664 9.99587C97.2998 10.1425 97.2398 10.3692 97.1864 10.6759C97.1598 10.8159 97.1464 10.9792 97.1464 11.1659C97.1464 11.6392 97.2398 12.0492 97.4264 12.3959C97.6198 12.7359 97.8831 12.9659 98.2164 13.0859C98.3764 13.1459 98.5564 13.1759 98.7564 13.1759C99.2564 13.1759 99.6331 12.9559 99.8864 12.5159C100.146 12.0692 100.276 11.5192 100.276 10.8659C100.276 10.2592 100.163 9.76254 99.9364 9.37587C99.7098 8.98254 99.3598 8.78587 98.8864 8.78587C98.6931 8.78587 98.5264 8.81587 98.3864 8.87587C98.2531 8.93587 98.0798 9.03254 97.8664 9.16587Z" fill="black"/>
</svg>
