<svg width="78" height="22" viewBox="0 0 78 22" fill="none" xmlns="http://www.w3.org/2000/svg">
<path d="M0 10.6327C0 4.76041 4.76041 0 10.6327 0H45.6226V21.2654H10.6327C4.7604 21.2654 0 16.5049 0 10.6327V10.6327Z" fill="#562BAC"/>
<path d="M13.6936 13.5659C13.6936 13.7325 13.6269 13.8892 13.4936 14.0359C13.3602 14.1759 13.2136 14.2459 13.0536 14.2459C12.8669 14.2459 12.6969 14.1959 12.5436 14.0959C12.3902 13.9892 12.3136 13.8559 12.3136 13.6959C12.3136 13.4425 12.3602 13.2559 12.4536 13.1359C12.5536 13.0159 12.7002 12.9559 12.8936 12.9559C13.1202 12.9559 13.3102 13.0125 13.4636 13.1259C13.6169 13.2325 13.6936 13.3792 13.6936 13.5659ZM19.1345 8.49587C19.1345 8.30254 19.1779 8.13587 19.2645 7.99587C19.3579 7.84921 19.4945 7.77588 19.6745 7.77588C19.8279 7.77588 19.9645 7.80588 20.0845 7.86588C20.2045 7.92587 20.2645 8.02587 20.2645 8.16587C20.2645 8.43921 20.2512 8.82254 20.2245 9.31588C20.1979 9.79588 20.1845 10.1525 20.1845 10.3859C20.1845 10.7525 20.1979 11.2425 20.2245 11.8559C20.2512 12.4425 20.2645 12.8725 20.2645 13.1459C20.2645 13.3659 20.2612 13.5292 20.2545 13.6359C20.2545 13.7425 20.1945 13.8492 20.0745 13.9559C19.9612 14.0559 19.7845 14.1059 19.5445 14.1059C19.4179 14.1059 19.3079 14.0859 19.2145 14.0459C19.1279 13.9992 19.0679 13.9492 19.0345 13.8959C18.7212 13.5159 18.2645 12.8692 17.6645 11.9559C16.9912 10.9359 16.4412 10.1559 16.0145 9.61588C16.0679 10.0959 16.0945 10.6825 16.0945 11.3759C16.0945 11.6825 16.0879 12.0825 16.0745 12.5759C16.0679 13.0625 16.0545 13.3825 16.0345 13.5359C16.0079 13.7292 15.9479 13.8792 15.8545 13.9859C15.7679 14.0859 15.6279 14.1359 15.4345 14.1359C15.2879 14.1359 15.1779 14.0959 15.1045 14.0159C15.0379 13.9292 14.9979 13.7825 14.9845 13.5759C14.9779 13.3025 14.9945 12.8925 15.0345 12.3459C15.0412 12.2592 15.0512 12.1092 15.0645 11.8959C15.0779 11.6825 15.0845 11.4925 15.0845 11.3259C15.0845 10.8659 15.0612 10.3392 15.0145 9.74588C14.9745 9.09254 14.9545 8.60921 14.9545 8.29588C14.9545 8.13588 15.0112 8.01254 15.1245 7.92588C15.2445 7.83921 15.3812 7.79587 15.5345 7.79587C15.6679 7.79587 15.8079 7.82921 15.9545 7.89587C16.5279 8.61588 17.3045 9.68921 18.2845 11.1159L19.2245 12.5559C19.2312 12.4492 19.2345 12.2992 19.2345 12.1059C19.2345 11.7659 19.2279 11.3992 19.2145 11.0059C19.2012 10.6125 19.1912 10.3459 19.1845 10.2059C19.1512 9.55921 19.1345 8.98921 19.1345 8.49587ZM25.8026 12.7559C25.9292 12.7559 26.0226 12.8059 26.0826 12.9059C26.1492 12.9992 26.1826 13.1025 26.1826 13.2159C26.1826 13.3559 26.1592 13.4559 26.1126 13.5159C26.0726 13.5692 25.9926 13.6259 25.8726 13.6859C25.5926 13.8192 25.2459 13.9259 24.8326 14.0059C24.4192 14.0859 23.9759 14.1259 23.5026 14.1259C22.9092 14.1259 22.4726 14.0259 22.1926 13.8259C21.9192 13.6259 21.7492 13.3859 21.6826 13.1059C21.6226 12.8192 21.5926 12.4459 21.5926 11.9859C21.5926 11.4925 21.6126 11.0092 21.6526 10.5359C21.6926 10.0559 21.7626 9.44588 21.8626 8.70588C21.9092 8.38587 22.0359 8.15587 22.2426 8.01588C22.4492 7.86921 22.6759 7.79587 22.9226 7.79587C23.1292 7.79587 23.4659 7.78921 23.9326 7.77588L24.8026 7.76587C25.1626 7.76587 25.4226 7.77587 25.5826 7.79587C25.7826 7.83587 25.9292 7.88254 26.0226 7.93587C26.1226 7.98254 26.1726 8.06588 26.1726 8.18587C26.1726 8.31921 26.1259 8.44921 26.0326 8.57588C25.9459 8.70254 25.8126 8.76587 25.6326 8.76587C25.4259 8.76587 25.1292 8.75254 24.7426 8.72587C24.3559 8.69921 24.0659 8.68587 23.8726 8.68587C23.7059 8.68587 23.5426 8.69587 23.3826 8.71588C23.1959 8.72921 23.0626 8.75254 22.9826 8.78587C22.9026 8.81921 22.8559 8.87588 22.8426 8.95587C22.7492 9.64254 22.7026 10.1492 22.7026 10.4759C22.8559 10.4959 23.0059 10.5059 23.1526 10.5059C23.3392 10.5059 23.5392 10.4959 23.7526 10.4759C23.9659 10.4559 24.1026 10.4425 24.1626 10.4359C24.5159 10.4025 24.8192 10.3859 25.0726 10.3859C25.2192 10.3859 25.3292 10.4125 25.4026 10.4659C25.4826 10.5192 25.5226 10.5925 25.5226 10.6859C25.5226 10.8325 25.4826 10.9459 25.4026 11.0259C25.3292 11.1059 25.1959 11.1659 25.0026 11.2059C24.7692 11.2525 24.4792 11.2892 24.1326 11.3159C23.7926 11.3425 23.4592 11.3559 23.1326 11.3559C23.0192 11.3559 22.8626 11.3492 22.6626 11.3359C22.6426 11.7425 22.6326 12.1192 22.6326 12.4659C22.6326 12.9392 22.9459 13.1759 23.5726 13.1759C23.9059 13.1759 24.1826 13.1525 24.4026 13.1059C24.6226 13.0592 24.8759 12.9925 25.1626 12.9059C25.4292 12.8059 25.6426 12.7559 25.8026 12.7559ZM26.6101 8.28588C26.6101 7.99921 26.8201 7.85587 27.2401 7.85587C27.4201 7.85587 27.7635 7.86254 28.2701 7.87588C28.8301 7.90254 29.2535 7.91588 29.5401 7.91588C29.7735 7.91588 30.0568 7.90254 30.3901 7.87588C30.6168 7.86254 30.7601 7.85587 30.8201 7.85587C31.1868 7.86921 31.4968 7.93588 31.7501 8.05588C31.8235 8.08921 31.8835 8.12921 31.9301 8.17587C31.9768 8.22254 32.0001 8.29921 32.0001 8.40587C32.0001 8.55254 31.9535 8.67921 31.8601 8.78587C31.7668 8.88588 31.6535 8.93588 31.5201 8.93588C31.3735 8.93588 31.1601 8.91588 30.8801 8.87587C30.6335 8.82921 30.4168 8.80588 30.2301 8.80588C30.0501 8.80588 29.9135 8.80921 29.8201 8.81587C29.8001 9.03588 29.7901 9.56254 29.7901 10.3959C29.7901 11.3892 29.8201 12.3959 29.8801 13.4159L29.9001 13.7059C29.9001 13.9792 29.7435 14.1159 29.4301 14.1159C29.1835 14.1159 29.0168 14.0592 28.9301 13.9459C28.8435 13.8259 28.8001 13.6459 28.8001 13.4059C28.8001 12.9325 28.7868 12.3425 28.7601 11.6359C28.7335 11.0492 28.7201 10.6325 28.7201 10.3859C28.7201 10.2192 28.7401 9.70921 28.7801 8.85588L27.6101 8.86587C27.2368 8.86587 26.9768 8.83254 26.8301 8.76587C26.6835 8.69254 26.6101 8.53254 26.6101 8.28588Z" fill="white"/>
<path d="M78 10.6327C78 16.5049 73.2396 21.2654 67.3673 21.2654L45.6226 21.2654V0L67.3673 0C73.2396 0 78 4.76041 78 10.6327V10.6327Z" fill="#9B93AA"/>
<path d="M57.537 10.8059C57.9436 10.9659 58.2703 11.1792 58.517 11.4459C58.7636 11.7125 58.887 12.0192 58.887 12.3659C58.887 12.4659 58.8636 12.5925 58.817 12.7459C58.777 12.8925 58.7203 13.0192 58.647 13.1259C58.207 13.8059 57.4303 14.1459 56.317 14.1459C55.737 14.1459 55.2336 14.0292 54.807 13.7959C54.3803 13.5559 54.167 13.1992 54.167 12.7259C54.167 12.0525 54.6303 11.4759 55.557 10.9959C54.6903 10.6759 54.257 10.2025 54.257 9.57587C54.257 9.19587 54.3636 8.87587 54.577 8.61588C54.7903 8.35587 55.0703 8.16254 55.417 8.03587C55.7703 7.90921 56.1536 7.84587 56.567 7.84587C56.8736 7.84587 57.187 7.91921 57.507 8.06588C57.827 8.20587 58.047 8.38921 58.167 8.61588C58.287 8.86921 58.347 9.10587 58.347 9.32587C58.347 9.61254 58.287 9.87588 58.167 10.1159C58.0536 10.3559 57.8436 10.5859 57.537 10.8059ZM56.497 10.5059C56.7103 10.3659 56.8736 10.2525 56.987 10.1659C57.107 10.0725 57.207 9.96254 57.287 9.83587C57.3736 9.70254 57.417 9.54921 57.417 9.37587C57.417 9.17588 57.337 9.00921 57.177 8.87587C57.017 8.74254 56.8236 8.67587 56.597 8.67587C56.1103 8.67587 55.7703 8.75921 55.577 8.92587C55.3903 9.09254 55.297 9.28921 55.297 9.51588C55.297 9.69588 55.357 9.84921 55.477 9.97587C55.597 10.0959 55.7303 10.1925 55.877 10.2659C56.0303 10.3325 56.237 10.4125 56.497 10.5059ZM57.827 12.2959C57.827 12.1825 57.7536 12.0625 57.607 11.9359C57.467 11.8092 57.3003 11.6992 57.107 11.6059C56.9136 11.5059 56.7503 11.4392 56.617 11.4059C56.3903 11.4992 56.1403 11.6492 55.867 11.8559C55.5936 12.0559 55.427 12.2025 55.367 12.2959C55.3003 12.3892 55.2536 12.4692 55.227 12.5359C55.207 12.5959 55.197 12.6692 55.197 12.7559C55.197 12.8559 55.257 12.9525 55.377 13.0459C55.497 13.1325 55.6403 13.2025 55.807 13.2559C55.9736 13.3092 56.117 13.3359 56.237 13.3359C56.7103 13.3359 57.0936 13.2425 57.387 13.0559C57.6803 12.8625 57.827 12.6092 57.827 12.2959ZM61.1155 13.5659C61.1155 13.7325 61.0488 13.8892 60.9155 14.0359C60.7822 14.1759 60.6355 14.2459 60.4755 14.2459C60.2888 14.2459 60.1188 14.1959 59.9655 14.0959C59.8122 13.9892 59.7355 13.8559 59.7355 13.6959C59.7355 13.4425 59.7822 13.2559 59.8755 13.1359C59.9755 13.0159 60.1222 12.9559 60.3155 12.9559C60.5422 12.9559 60.7322 13.0125 60.8855 13.1259C61.0388 13.2325 61.1155 13.3792 61.1155 13.5659ZM66.5464 8.47588C66.7664 8.81588 66.9431 9.20588 67.0764 9.64587C67.2098 10.0792 67.2764 10.5225 67.2764 10.9759C67.2764 11.5159 67.1831 12.0292 66.9964 12.5159C66.8164 13.0025 66.5431 13.3992 66.1764 13.7059C65.8164 14.0125 65.3764 14.1659 64.8564 14.1659C64.3698 14.1659 63.9231 14.0425 63.5164 13.7959C63.1098 13.5425 62.8031 13.2492 62.5964 12.9159C62.4431 12.6692 62.3264 12.3925 62.2464 12.0859C62.1664 11.7725 62.1264 11.4592 62.1264 11.1459C62.1264 10.5992 62.2398 10.0659 62.4664 9.54588C62.6998 9.02588 63.0198 8.60921 63.4264 8.29588C63.8131 8.00921 64.2564 7.86588 64.7564 7.86588C65.3098 7.86588 65.9064 8.06921 66.5464 8.47588ZM63.8664 9.16587C63.8064 9.26588 63.7464 9.35588 63.6864 9.43587C63.5398 9.65587 63.4331 9.84254 63.3664 9.99587C63.2998 10.1425 63.2398 10.3692 63.1864 10.6759C63.1598 10.8159 63.1464 10.9792 63.1464 11.1659C63.1464 11.6392 63.2398 12.0492 63.4264 12.3959C63.6198 12.7359 63.8831 12.9659 64.2164 13.0859C64.3764 13.1459 64.5564 13.1759 64.7564 13.1759C65.2564 13.1759 65.6331 12.9559 65.8864 12.5159C66.1464 12.0692 66.2764 11.5192 66.2764 10.8659C66.2764 10.2592 66.1631 9.76254 65.9364 9.37587C65.7098 8.98254 65.3598 8.78587 64.8864 8.78587C64.6931 8.78587 64.5264 8.81587 64.3864 8.87587C64.2531 8.93587 64.0798 9.03254 63.8664 9.16587Z" fill="black"/>
</svg>
