<svg width="97" height="22" viewBox="0 0 97 22" fill="none" xmlns="http://www.w3.org/2000/svg">
<path d="M0 10.5C0 4.70101 4.70101 0 10.5 0H65V21H10.5C4.70101 21 0 16.299 0 10.5V10.5Z" fill="#562BAC"/>
<path d="M17.82 13.64C17.9467 13.64 18.04 13.69 18.1 13.79C18.1667 13.8833 18.2 13.9867 18.2 14.1C18.2 14.24 18.1767 14.34 18.13 14.4C18.09 14.4533 18.01 14.51 17.89 14.57C17.61 14.7033 17.2633 14.81 16.85 14.89C16.4367 14.97 15.9933 15.01 15.52 15.01C14.9267 15.01 14.49 14.91 14.21 14.71C13.9367 14.51 13.7667 14.27 13.7 13.99C13.64 13.7033 13.61 13.33 13.61 12.87C13.61 12.3767 13.63 11.8933 13.67 11.42C13.71 10.94 13.78 10.33 13.88 9.59C13.9267 9.27 14.0533 9.04 14.26 8.9C14.4667 8.75333 14.6933 8.68 14.94 8.68C15.1467 8.68 15.4833 8.67333 15.95 8.66L16.82 8.65C17.18 8.65 17.44 8.66 17.6 8.68C17.8 8.72 17.9467 8.76667 18.04 8.82C18.14 8.86667 18.19 8.95 18.19 9.07C18.19 9.20333 18.1433 9.33333 18.05 9.46C17.9633 9.58667 17.83 9.65 17.65 9.65C17.4433 9.65 17.1467 9.63667 16.76 9.61C16.3733 9.58333 16.0833 9.57 15.89 9.57C15.7233 9.57 15.56 9.58 15.4 9.6C15.2133 9.61333 15.08 9.63667 15 9.67C14.92 9.70333 14.8733 9.76 14.86 9.84C14.7667 10.5267 14.72 11.0333 14.72 11.36C14.8733 11.38 15.0233 11.39 15.17 11.39C15.3567 11.39 15.5567 11.38 15.77 11.36C15.9833 11.34 16.12 11.3267 16.18 11.32C16.5333 11.2867 16.8367 11.27 17.09 11.27C17.2367 11.27 17.3467 11.2967 17.42 11.35C17.5 11.4033 17.54 11.4767 17.54 11.57C17.54 11.7167 17.5 11.83 17.42 11.91C17.3467 11.99 17.2133 12.05 17.02 12.09C16.7867 12.1367 16.4967 12.1733 16.15 12.2C15.81 12.2267 15.4767 12.24 15.15 12.24C15.0367 12.24 14.88 12.2333 14.68 12.22C14.66 12.6267 14.65 13.0033 14.65 13.35C14.65 13.8233 14.9633 14.06 15.59 14.06C15.9233 14.06 16.2 14.0367 16.42 13.99C16.64 13.9433 16.8933 13.8767 17.18 13.79C17.4467 13.69 17.66 13.64 17.82 13.64ZM20.3676 14.64C20.3476 14.74 20.2876 14.8267 20.1876 14.9C20.0942 14.9667 19.9609 15 19.7876 15C19.6409 15 19.5242 14.96 19.4376 14.88C19.3576 14.8 19.3142 14.7167 19.3076 14.63C19.3476 14.35 19.3676 13.93 19.3676 13.37C19.3676 13.0367 19.3476 12.5233 19.3076 11.83C19.2609 11.1767 19.2376 10.5967 19.2376 10.09C19.2376 9.81667 19.2509 9.53667 19.2776 9.25C19.2776 9.15667 19.3309 9.05667 19.4376 8.95C19.5509 8.84333 19.7042 8.77667 19.8976 8.75C20.5309 8.68333 21.3076 8.65 22.2276 8.65H22.5476C22.7876 8.65 23.0209 8.69333 23.2476 8.78C23.4809 8.86667 23.5976 9.01667 23.5976 9.23C23.5976 9.37 23.5642 9.48 23.4976 9.56C23.4309 9.64 23.3076 9.68 23.1276 9.68C23.0409 9.68 22.9409 9.67333 22.8276 9.66C22.7142 9.64667 22.6342 9.63667 22.5876 9.63C22.3342 9.59 22.1376 9.57 21.9976 9.57C21.2242 9.57 20.6409 9.62333 20.2476 9.73C20.2476 9.95 20.2542 10.3067 20.2676 10.8L20.2776 11.44C20.6242 11.44 20.9342 11.4267 21.2076 11.4C21.4809 11.3667 21.6376 11.3467 21.6776 11.34C22.0242 11.3 22.2542 11.28 22.3676 11.28C22.5276 11.28 22.6609 11.3167 22.7676 11.39C22.8809 11.4567 22.9376 11.5633 22.9376 11.71C22.9376 12.0433 22.7042 12.21 22.2376 12.21C22.1242 12.21 22.0242 12.2133 21.9376 12.22C21.8509 12.2267 21.7776 12.2333 21.7176 12.24C21.4776 12.2667 21.2876 12.28 21.1476 12.28C20.8409 12.28 20.5809 12.29 20.3676 12.31C20.3676 12.5567 20.3776 12.8167 20.3976 13.09C20.3976 13.1767 20.4009 13.31 20.4076 13.49C20.4209 13.67 20.4276 13.8333 20.4276 13.98C20.4276 14.1067 20.4242 14.2233 20.4176 14.33C20.4109 14.4367 20.3942 14.54 20.3676 14.64ZM31.4906 9.63C31.5906 9.75 31.6606 9.84667 31.7006 9.92C31.7406 9.99333 31.7606 10.0633 31.7606 10.13C31.7606 10.21 31.7073 10.3033 31.6006 10.41C31.5006 10.5167 31.4006 10.57 31.3006 10.57C31.1673 10.57 31.0606 10.55 30.9806 10.51C30.9006 10.47 30.834 10.4067 30.7806 10.32C30.654 10.12 30.5073 9.94333 30.3406 9.79C30.174 9.63 29.9506 9.55 29.6706 9.55C29.3973 9.55 29.0906 9.61333 28.7506 9.74C28.4106 9.86667 28.1606 10.0233 28.0006 10.21C27.6406 10.65 27.4606 11.2333 27.4606 11.96C27.4606 12.54 27.6406 13.0367 28.0006 13.45C28.3806 13.8767 28.8606 14.09 29.4406 14.09C29.7073 14.09 29.9973 14.0433 30.3106 13.95C30.6306 13.85 30.884 13.69 31.0706 13.47H31.0606C31.1806 13.3433 31.3306 13.28 31.5106 13.28C31.6173 13.28 31.7173 13.3267 31.8106 13.42C31.9106 13.5133 31.9606 13.6067 31.9606 13.7C31.9606 13.8 31.944 13.89 31.9106 13.97C31.884 14.0433 31.8306 14.1267 31.7506 14.22C31.4773 14.52 31.1273 14.73 30.7006 14.85C30.2806 14.9633 29.8006 15.02 29.2606 15.02C28.814 15.02 28.384 14.9133 27.9706 14.7C27.564 14.4867 27.2273 14.2167 26.9606 13.89C26.8273 13.6967 26.6973 13.42 26.5706 13.06C26.4506 12.6933 26.3906 12.3967 26.3906 12.17C26.3906 11.59 26.4773 11.04 26.6506 10.52C26.8306 9.99333 27.0973 9.57333 27.4506 9.26C27.684 9.04667 28.0206 8.88667 28.4606 8.78C28.9006 8.67333 29.304 8.62 29.6706 8.62C29.964 8.62 30.214 8.66333 30.4206 8.75C30.634 8.83 30.8173 8.94 30.9706 9.08C31.124 9.21333 31.2973 9.39667 31.4906 9.63ZM36.0764 15.01C35.6364 15.01 35.2331 14.9567 34.8664 14.85C34.4997 14.7367 34.1997 14.5733 33.9664 14.36C33.5397 13.98 33.2397 13.5667 33.0664 13.12C32.8997 12.6667 32.8164 12.09 32.8164 11.39C32.8164 11.2433 32.8364 11.1067 32.8764 10.98C32.9231 10.8467 32.9831 10.7 33.0564 10.54C33.0764 10.4933 33.1064 10.42 33.1464 10.32C33.1931 10.2133 33.2231 10.1167 33.2364 10.03C33.3631 9.79667 33.5764 9.57333 33.8764 9.36C34.1831 9.14667 34.5131 8.97667 34.8664 8.85C35.2197 8.71667 35.5297 8.65 35.7964 8.65C37.0831 8.65 38.0031 9.09 38.5564 9.97C38.8697 10.4833 39.0264 11 39.0264 11.52C39.0264 12.1933 38.9031 12.7833 38.6564 13.29C38.4164 13.7967 38.0831 14.19 37.6564 14.47C37.3897 14.63 37.1164 14.76 36.8364 14.86C36.5564 14.96 36.3031 15.01 36.0764 15.01ZM33.8564 12.13C33.8497 12.4967 33.9264 12.8 34.0864 13.04C34.2531 13.2733 34.5131 13.53 34.8664 13.81C35.1331 13.91 35.3197 13.9767 35.4264 14.01C35.5331 14.0433 35.6497 14.06 35.7764 14.06C36.2097 14.06 36.5931 13.97 36.9264 13.79C37.2597 13.61 37.5164 13.3633 37.6964 13.05C37.8831 12.7367 37.9764 12.3867 37.9764 12C37.9764 11.4933 37.9197 11.0933 37.8064 10.8C37.6931 10.5067 37.4897 10.2433 37.1964 10.01C37.0431 9.88333 36.8464 9.79 36.6064 9.73C36.3731 9.67 36.1231 9.64 35.8564 9.64C35.2164 9.64 34.7197 9.86667 34.3664 10.32C34.0197 10.7667 33.8497 11.37 33.8564 12.13ZM43.6132 12.35C44.1932 13.3367 44.7365 14.12 45.2432 14.7C45.2965 14.7533 45.3232 14.8133 45.3232 14.88C45.3232 14.9667 45.2699 15.04 45.1632 15.1C45.0565 15.1667 44.9332 15.2 44.7932 15.2C44.5865 15.2 44.3632 15.1133 44.1232 14.94C43.9499 14.82 43.7899 14.6433 43.6432 14.41C43.4965 14.17 43.3299 13.8633 43.1432 13.49L42.9732 13.15C42.7999 12.8367 42.6965 12.6533 42.6632 12.6C42.5165 12.66 42.3465 12.7033 42.1532 12.73C41.9599 12.7567 41.7232 12.78 41.4432 12.8C41.4565 13.6533 41.4632 14.25 41.4632 14.59C41.4632 14.7167 41.4165 14.82 41.3232 14.9C41.2299 14.9733 41.1132 15.01 40.9732 15.01C40.7999 15.01 40.6665 14.94 40.5732 14.8C40.4799 14.6133 40.4332 14.3233 40.4332 13.93L40.4432 13.2C40.4432 12.7467 40.4532 12.3167 40.4732 11.91C40.4865 11.3767 40.4932 10.9833 40.4932 10.73L40.5032 10.22C40.5032 10.0667 40.4932 9.91 40.4732 9.75C40.3665 9.71667 40.2732 9.66667 40.1932 9.6C40.1132 9.52667 40.0732 9.44667 40.0732 9.36C40.0732 9.19333 40.1332 9.06667 40.2532 8.98C40.3799 8.88667 40.5365 8.82667 40.7232 8.8C41.2632 8.71333 41.7899 8.67 42.3032 8.67C43.1765 8.67 43.8999 8.83333 44.4732 9.16C45.0465 9.48667 45.3332 9.98333 45.3332 10.65C45.3332 10.8567 45.2865 11.0567 45.1932 11.25C45.1065 11.4367 44.9865 11.5933 44.8332 11.72C44.4332 12.0333 44.0265 12.2433 43.6132 12.35ZM44.2732 10.62C44.2732 10.3 44.1032 10.04 43.7632 9.84C43.4299 9.63333 42.9499 9.53 42.3232 9.53C42.0499 9.53 41.7699 9.56333 41.4832 9.63C41.4965 9.87 41.5032 10.04 41.5032 10.14C41.5032 10.34 41.4899 10.6267 41.4632 11C41.4499 11.3733 41.4432 11.6733 41.4432 11.9C41.8899 11.9 42.3165 11.84 42.7232 11.72C43.0165 11.6333 43.2632 11.55 43.4632 11.47C43.6632 11.39 43.8465 11.28 44.0132 11.14C44.1865 10.9933 44.2732 10.82 44.2732 10.62ZM50.5453 13.73C50.672 13.73 50.7653 13.78 50.8253 13.88C50.892 13.9733 50.9253 14.0767 50.9253 14.19C50.9253 14.33 50.902 14.43 50.8553 14.49C50.8153 14.5433 50.732 14.6 50.6053 14.66C50.3386 14.7867 50.0386 14.8767 49.7053 14.93C49.3786 14.9833 48.9686 15.01 48.4753 15.01C47.882 15.01 47.4253 14.91 47.1053 14.71C46.792 14.5033 46.5853 14.2467 46.4853 13.94C46.3853 13.6333 46.3353 13.2767 46.3353 12.87V12.24C46.3353 11.8067 46.3453 11.39 46.3653 10.99C46.392 10.59 46.442 10.1233 46.5153 9.59C46.562 9.27 46.6886 9.04 46.8953 8.9C47.102 8.75333 47.3286 8.68 47.5753 8.68C47.842 8.68 48.2086 8.67333 48.6753 8.66L49.5453 8.65C49.8986 8.65 50.1586 8.66 50.3253 8.68C50.5253 8.72 50.672 8.76667 50.7653 8.82C50.8653 8.86667 50.9153 8.95 50.9153 9.07C50.9153 9.20333 50.8686 9.33333 50.7753 9.46C50.6886 9.58667 50.5553 9.65 50.3753 9.65C50.1686 9.65 49.872 9.63667 49.4853 9.61C49.0986 9.58333 48.8086 9.57 48.6153 9.57C48.3753 9.57 48.182 9.58 48.0353 9.6C47.8486 9.61333 47.7153 9.63667 47.6353 9.67C47.5553 9.70333 47.5086 9.76 47.4953 9.84C47.402 10.5267 47.3553 11.0333 47.3553 11.36C47.502 11.38 47.6586 11.39 47.8253 11.39C48.0386 11.39 48.3953 11.3667 48.8953 11.32C49.262 11.2867 49.5653 11.27 49.8053 11.27C49.9586 11.27 50.072 11.2967 50.1453 11.35C50.2186 11.4033 50.2553 11.4767 50.2553 11.57C50.2553 11.7167 50.2186 11.83 50.1453 11.91C50.072 11.99 49.9386 12.05 49.7453 12.09C49.512 12.1367 49.2086 12.1733 48.8353 12.2C48.4686 12.2267 48.1186 12.24 47.7853 12.24C47.6586 12.24 47.502 12.2333 47.3153 12.22C47.3153 12.66 47.3353 13.0067 47.3753 13.26C47.422 13.5133 47.5153 13.71 47.6553 13.85C47.802 13.99 48.022 14.06 48.3153 14.06C48.9753 14.06 49.502 14 49.8953 13.88C50.1753 13.78 50.392 13.73 50.5453 13.73Z" fill="white"/>
<path d="M97 10.6327C97 16.5049 92.2396 21.2654 86.3673 21.2654L64.6226 21.2654V0L86.3673 0C92.2396 0 97 4.76041 97 10.6327V10.6327Z" fill="#9B93AA"/>
<path d="M71.1 14.02C71.3267 13.9467 71.5433 13.8133 71.75 13.62C71.9633 13.4267 72.14 13.21 72.28 12.97C72.4267 12.7233 72.5133 12.4867 72.54 12.26C72.3533 12.3933 72.1633 12.4867 71.97 12.54C71.7767 12.5933 71.5533 12.62 71.3 12.62C70.96 12.62 70.68 12.5633 70.46 12.45C70.24 12.33 70.0067 12.16 69.76 11.94C69.72 11.9 69.67 11.8133 69.61 11.68C69.55 11.54 69.4967 11.37 69.45 11.17C69.4033 10.9633 69.38 10.7533 69.38 10.54C69.38 10.3467 69.44 10.1433 69.56 9.93C69.68 9.71667 69.83 9.52667 70.01 9.36C70.1967 9.18667 70.3733 9.06333 70.54 8.99C70.6933 8.92333 70.87 8.86667 71.07 8.82C71.2767 8.76667 71.45 8.74 71.59 8.74C72.0633 8.74 72.46 8.85 72.78 9.07C73.1067 9.29 73.3467 9.58333 73.5 9.95C73.6533 10.3167 73.73 10.7233 73.73 11.17C73.73 11.9367 73.56 12.6367 73.22 13.27C72.88 13.8967 72.45 14.3833 71.93 14.73C71.8433 14.79 71.6933 14.8567 71.48 14.93C71.2733 14.9967 71.0833 15.03 70.91 15.03C70.7767 15.03 70.66 14.97 70.56 14.85C70.46 14.73 70.41 14.5933 70.41 14.44C70.41 14.3333 70.4467 14.26 70.52 14.22C70.5933 14.1733 70.7133 14.1267 70.88 14.08L71.1 14.02ZM71.59 9.59C71.4833 9.59 71.3567 9.61333 71.21 9.66C71.07 9.7 70.95 9.75 70.85 9.81C70.7367 9.87667 70.6267 9.98 70.52 10.12C70.42 10.2533 70.37 10.3567 70.37 10.43C70.37 11.3033 70.7233 11.74 71.43 11.74C71.59 11.74 71.7667 11.7067 71.96 11.64C72.16 11.5667 72.3267 11.4667 72.46 11.34C72.5933 11.2133 72.66 11.07 72.66 10.91C72.66 10.47 72.5667 10.14 72.38 9.92C72.2 9.7 71.9367 9.59 71.59 9.59ZM76.1544 14.45C76.1544 14.6167 76.0877 14.7733 75.9544 14.92C75.821 15.06 75.6744 15.13 75.5144 15.13C75.3277 15.13 75.1577 15.08 75.0044 14.98C74.851 14.8733 74.7744 14.74 74.7744 14.58C74.7744 14.3267 74.821 14.14 74.9144 14.02C75.0144 13.9 75.161 13.84 75.3544 13.84C75.581 13.84 75.771 13.8967 75.9244 14.01C76.0777 14.1167 76.1544 14.2633 76.1544 14.45ZM81.5853 9.36C81.8053 9.7 81.982 10.09 82.1153 10.53C82.2486 10.9633 82.3153 11.4067 82.3153 11.86C82.3153 12.4 82.222 12.9133 82.0353 13.4C81.8553 13.8867 81.582 14.2833 81.2153 14.59C80.8553 14.8967 80.4153 15.05 79.8953 15.05C79.4086 15.05 78.962 14.9267 78.5553 14.68C78.1486 14.4267 77.842 14.1333 77.6353 13.8C77.482 13.5533 77.3653 13.2767 77.2853 12.97C77.2053 12.6567 77.1653 12.3433 77.1653 12.03C77.1653 11.4833 77.2786 10.95 77.5053 10.43C77.7386 9.91 78.0586 9.49333 78.4653 9.18C78.852 8.89333 79.2953 8.75 79.7953 8.75C80.3486 8.75 80.9453 8.95333 81.5853 9.36ZM78.9053 10.05C78.8453 10.15 78.7853 10.24 78.7253 10.32C78.5786 10.54 78.472 10.7267 78.4053 10.88C78.3386 11.0267 78.2786 11.2533 78.2253 11.56C78.1986 11.7 78.1853 11.8633 78.1853 12.05C78.1853 12.5233 78.2786 12.9333 78.4653 13.28C78.6586 13.62 78.922 13.85 79.2553 13.97C79.4153 14.03 79.5953 14.06 79.7953 14.06C80.2953 14.06 80.672 13.84 80.9253 13.4C81.1853 12.9533 81.3153 12.4033 81.3153 11.75C81.3153 11.1433 81.202 10.6467 80.9753 10.26C80.7486 9.86667 80.3986 9.67 79.9253 9.67C79.732 9.67 79.5653 9.7 79.4253 9.76C79.292 9.82 79.1186 9.91667 78.9053 10.05ZM84.7774 14.45C84.7774 14.6167 84.7108 14.7733 84.5774 14.92C84.4441 15.06 84.2974 15.13 84.1374 15.13C83.9508 15.13 83.7808 15.08 83.6274 14.98C83.4741 14.8733 83.3974 14.74 83.3974 14.58C83.3974 14.3267 83.4441 14.14 83.5374 14.02C83.6374 13.9 83.7841 13.84 83.9774 13.84C84.2041 13.84 84.3941 13.8967 84.5474 14.01C84.7008 14.1167 84.7774 14.2633 84.7774 14.45ZM90.2084 9.36C90.4284 9.7 90.605 10.09 90.7384 10.53C90.8717 10.9633 90.9384 11.4067 90.9384 11.86C90.9384 12.4 90.845 12.9133 90.6584 13.4C90.4784 13.8867 90.205 14.2833 89.8384 14.59C89.4784 14.8967 89.0384 15.05 88.5184 15.05C88.0317 15.05 87.585 14.9267 87.1784 14.68C86.7717 14.4267 86.465 14.1333 86.2584 13.8C86.105 13.5533 85.9884 13.2767 85.9084 12.97C85.8284 12.6567 85.7884 12.3433 85.7884 12.03C85.7884 11.4833 85.9017 10.95 86.1284 10.43C86.3617 9.91 86.6817 9.49333 87.0884 9.18C87.475 8.89333 87.9184 8.75 88.4184 8.75C88.9717 8.75 89.5684 8.95333 90.2084 9.36ZM87.5284 10.05C87.4684 10.15 87.4084 10.24 87.3484 10.32C87.2017 10.54 87.095 10.7267 87.0284 10.88C86.9617 11.0267 86.9017 11.2533 86.8484 11.56C86.8217 11.7 86.8084 11.8633 86.8084 12.05C86.8084 12.5233 86.9017 12.9333 87.0884 13.28C87.2817 13.62 87.545 13.85 87.8784 13.97C88.0384 14.03 88.2184 14.06 88.4184 14.06C88.9184 14.06 89.295 13.84 89.5484 13.4C89.8084 12.9533 89.9384 12.4033 89.9384 11.75C89.9384 11.1433 89.825 10.6467 89.5984 10.26C89.3717 9.86667 89.0217 9.67 88.5484 9.67C88.355 9.67 88.1884 9.7 88.0484 9.76C87.915 9.82 87.7417 9.91667 87.5284 10.05Z" fill="black"/>
</svg>
